<svg xmlns="http://www.w3.org/2000/svg" viewBox="0 0 32 32">
  <rect width="32" height="32" rx="4" fill="#1a1a17"/>
  <path d="M2 11 Q5 10 7 12 L8 13.5 L10 12 L12.5 11 L15 11.5 L18 11.5 L20 11 L21 10.5 L21.5 8 L22.5 10 L23.5 10 L24.5 8 L25 10.5 L26 11 L28.5 11.8 L30 12.8 L28 13.5 L26.5 13.6 L26.5 14.4 L25 15 L23 14.8 L22 14.5 L22 21 L20.5 21 L20.5 16 L18 16 L18 21 L16.5 21 L16.5 16 L13 16 L13 21 L11.5 21 L11.5 16 L9 16 L8 21 L6.5 21 L7 15 L5 14 L3.5 13 Z" fill="#faf7f0"/>
  <circle cx="26.5" cy="11.8" r="0.55" fill="#1a1a17"/>
</svg>
