<svg xmlns="http://www.w3.org/2000/svg" viewBox="0 0 32 32">
  <rect width="32" height="32" rx="6" fill="#121312"/>
  <path d="M4 19.5 C7.8 13.8 13 10.8 19.6 10.8 C22.2 10.8 24.4 11.5 26.2 12.8 L31 11.7 L27.2 14.8 C27.1 17.8 24.7 20.4 20.8 21.5 C16.5 22.8 12.2 22.1 8 19.5 L4 19.5 Z" fill="#F4F4F5"/>
  <path d="M11.2 11.2 L5.5 6.8 L13 9.4 L10 3.5 L16.1 8.8 L17.6 3 L19.2 9.3" fill="none" stroke="#F4F4F5" stroke-width="1.7" stroke-linecap="round" stroke-linejoin="round"/>
  <path d="M15.2 21 L12.8 28 M19.2 21.5 L22.8 28 M11 28 L15.4 28 M21.2 28 L26.2 28" fill="none" stroke="#F4F4F5" stroke-width="1.7" stroke-linecap="round" stroke-linejoin="round"/>
  <circle cx="23.9" cy="13.3" r="0.65" fill="#121312"/>
</svg>
