<svg xmlns="http://www.w3.org/2000/svg" width="1200" height="630" viewBox="0 0 1200 630">
  <rect width="1200" height="630" fill="#faf7f0"/>
  <rect x="48" y="48" width="1104" height="534" fill="#fdfaf2" stroke="#d8d3c4" stroke-width="2"/>
  <g transform="translate(86 78)">
    <rect width="68" height="68" rx="8" fill="#1a1a17"/>
    <path d="M7 31 Q14 29 19 34 L22 38 L27 34 L34 31 L41 32 L49 32 L54 31 L57 29 L58 23 L61 29 L64 29 L68 23 L69 30 L72 31 L79 33 L83 36 L77 38 L73 38 L73 40 L69 42 L64 41 L61 40 L61 58 L57 58 L57 45 L50 45 L50 58 L46 58 L46 45 L36 45 L36 58 L32 58 L32 45 L25 45 L22 58 L18 58 L19 42 L14 39 L10 36 Z" fill="#faf7f0" transform="scale(.75) translate(0 1)"/>
    <circle cx="59" cy="28" r="1.2" fill="#1a1a17"/>
  </g>
  <text x="86" y="202" fill="#1a1a17" font-family="Inter, -apple-system, BlinkMacSystemFont, sans-serif" font-size="34" font-weight="600" letter-spacing="2">SWE-MARATHON BENCHMARK</text>
  <text x="86" y="292" fill="#1a1a17" font-family="Georgia, serif" font-size="72">How long can coding</text>
  <text x="86" y="374" fill="#1a1a17" font-family="Georgia, serif" font-size="72">agents stay useful?</text>
  <text x="86" y="442" fill="#494842" font-family="Inter, -apple-system, BlinkMacSystemFont, sans-serif" font-size="28">Twenty ultra-long-horizon software engineering tasks,</text>
  <text x="86" y="480" fill="#494842" font-family="Inter, -apple-system, BlinkMacSystemFont, sans-serif" font-size="28">frontier-agent leaderboards, and verifier-gated scoring.</text>
  <g transform="translate(86 532)" font-family="IBM Plex Mono, ui-monospace, monospace" font-size="19" fill="#494842">
    <text x="0" y="0">20 tasks</text>
    <text x="160" y="0">1-8h budget</text>
    <text x="360" y="0">&lt;10% frontier resolve rate</text>
  </g>
  <path d="M796 482 C842 432 870 470 906 416 C936 371 969 389 1003 327 C1031 276 1076 236 1126 260" fill="none" stroke="#b56636" stroke-width="5"/>
  <path d="M796 532 L1126 532" stroke="#d8d3c4" stroke-width="2"/>
  <g fill="#1a1a17">
    <circle cx="796" cy="482" r="7"/>
    <circle cx="906" cy="416" r="7"/>
    <circle cx="1003" cy="327" r="7"/>
    <circle cx="1126" cy="260" r="7"/>
  </g>
</svg>
